<?xml version="1.0" encoding="utf-8"?>
<!-- Generator: Adobe Illustrator 16.0.0, SVG Export Plug-In . SVG Version: 6.00 Build 0)  -->
<!DOCTYPE svg PUBLIC "-//W3C//DTD SVG 1.0//EN" "http://www.w3.org/TR/2001/REC-SVG-20010904/DTD/svg10.dtd">
<svg version="1.0" id="Layer_1" xmlns="http://www.w3.org/2000/svg" xmlns:xlink="http://www.w3.org/1999/xlink" x="0px" y="0px"
	 width="100px" height="100px" viewBox="0 0 100 100" enable-background="new 0 0 100 100" xml:space="preserve">
<polygon points="56.667,9.999 23.333,24.999 56.667,39.999 90,24.999 "/>
<path d="M56.667,45.481l-20-9.001v5.228l18.2,18.202c7.529,0.254,14.965-1.068,21.801-3.9V36.48L56.667,45.481z"/>
<path d="M39.229,51.342L24.142,36.256C17.476,39.017,12.557,44.212,10,50.398l15.086,15.084l-7.07,7.07l7.07,2.357l2.356,7.076
	l7.072-7.07L48.659,60.77L39.229,51.342z"/>
<path d="M52.194,64.305L38.05,78.451L49.6,90.001c6.667-2.767,11.585-7.962,14.144-14.147L52.194,64.305z"/>
</svg>
